<svg width="1200" height="700" viewBox="0 0 1200 700" fill="none" xmlns="http://www.w3.org/2000/svg">
  <rect width="1200" height="700" rx="24" fill="#0C1D2E"/>
  <rect x="34" y="34" width="240" height="632" rx="16" fill="#132F48"/>
  <rect x="302" y="34" width="864" height="96" rx="16" fill="#133A58"/>
  <rect x="302" y="154" width="410" height="210" rx="16" fill="#184D74"/>
  <rect x="756" y="154" width="410" height="210" rx="16" fill="#184D74"/>
  <rect x="302" y="386" width="864" height="280" rx="16" fill="#133A58"/>
  <circle cx="116" cy="108" r="22" fill="#14F195"/>
  <rect x="80" y="168" width="144" height="16" rx="8" fill="#8CB9DA"/>
  <rect x="80" y="204" width="120" height="16" rx="8" fill="#8CB9DA"/>
  <rect x="80" y="240" width="100" height="16" rx="8" fill="#8CB9DA"/>
  <rect x="80" y="326" width="150" height="16" rx="8" fill="#8CB9DA"/>
  <rect x="80" y="362" width="120" height="16" rx="8" fill="#8CB9DA"/>
  <text x="342" y="92" fill="#F2F2F2" font-size="34" font-family="Orbitron, sans-serif">MarkIn Dashboard</text>
  <text x="336" y="210" fill="#F2F2F2" font-size="22" font-family="Orbitron, sans-serif">Live Session: 3 min window active</text>
  <text x="790" y="210" fill="#F2F2F2" font-size="22" font-family="Orbitron, sans-serif">Defaulter Analytics</text>
  <text x="336" y="452" fill="#F2F2F2" font-size="24" font-family="Orbitron, sans-serif">Attendance Trend Chart</text>
  <polyline points="340,560 430,540 520,580 610,520 700,540 790,500 880,520 970,470 1060,490" stroke="#14F195" stroke-width="8" fill="none"/>
</svg>
